# xmcd CD database file
#
# Track frame offsets:
#	150
#	15489
#	30475
#	55701
#	75930
#	105587
#	124377
#	142812
#	166773
#	183168
#	201662
#	217275
#	229056
#	255912
#	269332
#
# Disc length: 4025 seconds
#
# Revision: 1
# Processed by: cddbd v1.5.2PL0 Copyright (c) Steve Scherf et al.
# Submitted via: CDex 1.51
#
DISCID=c20fb70f
DTITLE=Heinrich Böll - Ansichten eines Clowns
DYEAR=1963
DGENRE=Lesung
TTITLE0=301
TTITLE1=302
TTITLE2=303
TTITLE3=304
TTITLE4=305
TTITLE5=306
TTITLE6=307
TTITLE7=308
TTITLE8=309
TTITLE9=310
TTITLE10=311
TTITLE11=312
TTITLE12=313
TTITLE13=314
TTITLE14=315
EXTD=YEAR: 1963
EXTT0=
EXTT1=
EXTT2=
EXTT3=
EXTT4=
EXTT5=
EXTT6=
EXTT7=
EXTT8=
EXTT9=
EXTT10=
EXTT11=
EXTT12=
EXTT13=
EXTT14=
PLAYORDER=
